<svg xmlns="http://www.w3.org/2000/svg" version="1.1" xmlns:xlink="http://www.w3.org/1999/xlink" xmlns:svgjs="http://svgjs.com/svgjs" width="256" height="256"><svg width="256" height="256" viewBox="0 0 256 256" fill="none" xmlns="http://www.w3.org/2000/svg">
<circle cx="128" cy="128" r="128" fill="#409682"></circle>
<path d="M42 179.381V75.619H69.0247V156.862H115.143V179.381H42Z" fill="white"></path>
<path d="M179.49 181C168.034 181 158.193 178.792 149.968 174.377C141.743 169.961 135.428 163.731 131.021 155.685C126.713 147.639 124.559 138.22 124.559 127.426C124.559 116.633 126.713 107.263 131.021 99.315C135.428 91.2691 141.743 85.0385 149.968 80.6231C158.193 76.2077 168.034 74 179.49 74C186.344 74 192.953 75.0793 199.318 77.238C205.682 79.2985 210.823 82.0459 214.739 85.4801L206.661 106.821C202.353 103.681 198.045 101.376 193.736 99.9037C189.428 98.3338 185.022 97.5488 180.518 97.5488C171.412 97.5488 164.558 100.149 159.956 105.349C155.353 110.452 153.052 117.811 153.052 127.426C153.052 137.14 155.353 144.597 159.956 149.798C164.558 154.9 171.412 157.451 180.518 157.451C185.022 157.451 189.428 156.715 193.736 155.243C198.045 153.674 202.353 151.319 206.661 148.179L214.739 169.52C210.823 172.954 205.682 175.751 199.318 177.909C192.953 179.97 186.344 181 179.49 181Z" fill="white"></path>
</svg><style>@media (prefers-color-scheme: light) { :root { filter: none; } }
</style></svg>